<svg xmlns="http://www.w3.org/2000/svg" width="32" height="32" viewBox="0 0 32 32">
  <!-- Placeholder favicon. Replace with the final Uzo Labs mark. -->
  <rect width="32" height="32" rx="7" fill="#0B0A09"/>
  <path d="M16.60 16.00 L16.67 16.09 L16.73 16.19 L16.77 16.32 L16.78 16.45 L16.78 16.60 L16.75 16.75 L16.69 16.90 L16.61 17.05 L16.49 17.19 L16.35 17.32 L16.19 17.43 L16.00 17.52 L15.79 17.58 L15.57 17.61 L15.33 17.61 L15.09 17.58 L14.84 17.51 L14.60 17.40 L14.37 17.25 L14.16 17.06 L13.96 16.84 L13.80 16.59 L13.66 16.31 L13.57 16.00 L13.51 15.67 L13.50 15.33 L13.54 14.98 L13.63 14.63 L13.77 14.29 L13.96 13.96 L14.19 13.65 L14.48 13.36 L14.81 13.12 L15.17 12.91 L15.57 12.75 L16.00 12.65 L16.45 12.60 L16.91 12.62 L17.37 12.69 L17.83 12.83 L18.27 13.04 L18.69 13.31 L19.08 13.64 L19.43 14.02 L19.73 14.45 L19.97 14.94 L20.15 15.45 L20.27 16.00 L20.31 16.57 L20.27 17.14 L20.15 17.72 L19.96 18.29 L19.69 18.83 L19.34 19.34 L18.92 19.81 L18.44 20.22 L17.90 20.58 L17.30 20.86 L16.67 21.06 L16.00 21.18 L15.31 21.21 L14.62 21.15 L13.93 21.00 L13.26 20.75 L12.61 20.42 L12.01 19.99 L11.46 19.48 L10.98 18.90 L10.58 18.25 L10.26 17.54 L10.03 16.79 L9.90 16.00 L9.88 15.19 L9.96 14.38 L10.15 13.58 L10.45 12.80 L10.86 12.05 L11.36 11.36 L11.96 10.74 L12.64 10.19 L13.40 9.73 L14.22 9.37 L15.09 9.12 L16.00 8.98 L16.93 8.97 L17.86 9.07 L18.77 9.31 L19.66 9.66 L20.50 10.13 L21.29 10.71 L21.99 11.40 L22.61 12.19 L23.12 13.05 L23.52 13.99 L23.79 14.97 L23.93 16.00 L23.94 17.05 L23.81 18.09 L23.54 19.12 L23.14 20.12 L22.60 21.06 L21.93 21.93 L21.16 22.72 L20.27 23.40 L19.30 23.96 L18.25 24.40 L17.15 24.70 L16.00 24.85 L14.83 24.85 L13.67 24.70 L12.53 24.39 L11.42 23.93 L10.38 23.32 L9.42 22.58 L8.55 21.71 L7.81 20.73 L7.19 19.65 L6.71 18.49 L6.39 17.26 L6.23 16.00 L6.24 14.72 L6.42 13.43 L6.77 12.17 L7.28 10.96 L7.95 9.82 L8.77 8.77 L9.73 7.83 L10.81 7.01 L12.00 6.34 L13.27 5.83 L14.62 5.48 L16.00 5.32 L17.40 5.33 L18.80 5.53 L20.18 5.92 L21.49 6.48 L22.74 7.22 L23.88 8.12 L24.90 9.17 L25.78 10.35 L26.51 11.65 L27.06 13.04 L27.43 14.50 L27.60 16.00" fill="none" stroke="#D9A441" stroke-width="2.4" stroke-linecap="round"/>
</svg>
